Coordinates
version=1
nRows=20
nColumns=30
inDegrees=yes

Units are S.I. units (second, meters, Newtons, ...)
Angles are in degrees.

endheader
time	floatyaw	floatroll	floatpitch	floatx	floaty	floatz	pro_sup_l	deviation_l	flexion_l	cmc_flexion_l	cmc_abduction_l	mp_flexion_l	ip_flexion_l	2mcp_flexion_l	2mcp_abduction_l	2pm_flexion_l	2md_flexion_l	3mcp_flexion_l	3mcp_abduction_l	3pm_flexion_l	3md_flexion_l	4mcp_flexion_l	4mcp_abduction_l	4pm_flexion_l	4md_flexion_l	5mcp_flexion_l	5mcp_abduction_l	5pm_flexion_l	5md_flexion_l
-1.495000	-160.147433	-5.066637	-73.570646	0.082851	-0.182544	-0.015511	99.171538	4.106469	0.493466	17.897000	9.433859	-25.228829	-42.584960	28.207501	6.521478	42.658299	29.027096	23.910941	3.979145	42.610120	27.912419	12.115691	-4.203506	51.053151	34.806057	-0.086258	-7.836815	60.263748	41.587084
-1.485000	-160.147433	-5.066637	-73.570646	0.082849	-0.182541	-0.015511	99.180128	4.108983	0.489636	17.889518	9.488930	-25.219463	-42.590589	28.221375	6.529582	42.651845	29.013676	23.915959	3.980241	42.618055	27.911134	12.129727	-4.204453	51.052823	34.802195	-0.063746	-7.834363	60.264095	41.565341
-1.475000	-160.147433	-5.066637	-73.570646	0.082847	-0.182537	-0.015511	99.176512	4.105614	0.489939	17.871546	9.555110	-25.207436	-42.568692	28.229449	6.538024	42.649207	29.010033	23.917602	3.981539	42.624195	27.913550	12.136314	-4.204690	51.056267	34.802512	-0.049621	-7.831582	60.265981	41.555238
-1.465000	-160.147433	-5.066637	-73.570646	0.082844	-0.182533	-0.015509	99.166808	4.100539	0.494261	17.844296	9.617531	-25.189469	-42.517647	28.229943	6.545126	42.652740	29.018355	23.913947	3.982504	42.631026	27.922495	12.134181	-4.205350	51.065171	34.808969	-0.043472	-7.829984	60.266726	41.556529
-1.455000	-160.147433	-5.066637	-73.570646	0.082841	-0.182527	-0.015507	99.158769	4.098020	0.501423	17.813194	9.664292	-25.165799	-42.444633	28.223492	6.549616	42.661418	29.037163	23.904626	3.982661	42.639665	27.938652	12.124250	-4.207444	51.079274	34.821624	-0.042668	-7.829563	60.260397	41.563552
-1.445000	-160.147433	-5.066637	-73.570646	0.082840	-0.182518	-0.015505	99.157342	4.099973	0.509633	17.785282	9.690959	-25.141361	-42.364609	28.213925	6.550952	42.670307	29.060889	23.891626	3.981904	42.648405	27.959182	12.109011	-4.211256	51.096454	34.838425	-0.043852	-7.828606	60.240940	41.568288
-1.435000	-160.147433	-5.066637	-73.570646	0.082841	-0.182510	-0.015503	99.161928	4.104926	0.517049	17.765893	9.702119	-25.124316	-42.295939	28.207466	6.549398	42.672239	29.081340	23.878813	3.980578	42.653656	27.978526	12.091590	-4.216158	51.113616	34.855898	-0.044549	-7.824728	60.205980	41.564601
-1.425000	-160.147433	-5.066637	-73.570646	0.082843	-0.182504	-0.015505	99.167129	4.108990	0.522334	17.756281	9.708751	-25.122270	-42.253815	28.210253	6.545882	42.661206	29.090828	23.870222	3.979304	42.652660	27.991072	12.074965	-4.220895	51.127855	34.870321	-0.044030	-7.816403	60.158986	41.551308
-1.415000	-160.147433	-5.066637	-73.570646	0.082847	-0.182501	-0.015508	99.166508	4.108219	0.525047	17.753341	9.722015	-25.138276	-42.244373	28.225249	6.541643	42.635941	29.085708	23.867955	3.978669	42.646021	27.994154	12.061431	-4.224140	51.137399	34.878917	-0.043256	-7.804016	60.108547	41.532573
-1.405000	-160.147433	-5.066637	-73.570646	0.082851	-0.182501	-0.015515	99.156952	4.100999	0.525729	17.751511	9.746701	-25.169058	-42.262802	28.250391	6.537759	42.601575	29.068419	23.870862	3.978949	42.638228	27.989577	12.052261	-4.225063	51.141960	34.880680	-0.044074	-7.789847	60.065161	41.515644
-1.395000	-160.147433	-5.066637	-73.570646	0.082854	-0.182503	-0.015522	99.140923	4.089109	0.525580	17.745795	9.778528	-25.206540	-42.296787	28.279279	6.534769	42.567941	29.046492	23.874963	3.980008	42.635639	27.982622	12.047626	-4.223666	51.142373	34.876505	-0.048003	-7.777113	60.037109	41.507180
-1.385000	-160.147433	-5.066637	-73.570646	0.082856	-0.182504	-0.015528	99.125326	4.076927	0.525835	17.734254	9.807324	-25.241606	-42.333210	28.304146	6.532667	42.545164	29.028802	23.875552	3.981383	42.643141	27.979091	12.046878	-4.220743	51.139747	34.868570	-0.055070	-7.768680	60.027363	41.510056
-1.375000	-160.147433	-5.066637	-73.570646	0.082857	-0.182502	-0.015533	99.117842	4.069261	0.527135	17.718654	9.824220	-25.267765	-42.363754	28.319329	6.531305	42.539146	29.021369	23.869740	3.982509	42.661676	27.982328	12.049075	-4.217461	51.134812	34.859329	-0.063330	-7.766132	60.032955	41.522309
-1.365000	-160.147433	-5.066637	-73.570646	0.082858	-0.182496	-0.015537	99.122928	4.069021	0.529277	17.703035	9.828100	-25.282906	-42.386331	28.323248	6.530923	42.549509	29.025195	23.857855	3.983006	42.688048	27.992010	12.053428	-4.214811	51.127894	34.850720	-0.069558	-7.769568	60.047050	41.538755
-1.355000	-160.147433	-5.066637	-73.570646	0.082859	-0.182487	-0.015540	99.139531	4.075847	0.531540	17.691108	9.827080	-25.288833	-42.402630	28.318104	6.532318	42.570575	29.036948	23.842917	3.982885	42.716666	28.005008	12.059324	-4.213224	51.119379	34.843941	-0.071070	-7.777933	60.062537	41.554288
-1.345000	-160.147433	-5.066637	-73.570646	0.082858	-0.182477	-0.015541	99.161313	4.086206	0.533400	17.683867	9.834334	-25.289516	-42.414451	28.307981	6.536398	42.594270	29.051509	23.828700	3.982608	42.741798	28.017338	12.065840	-4.212555	51.110177	34.839764	-0.067710	-7.789540	60.075124	41.566880
-1.335000	-160.147433	-5.066637	-73.570646	0.082858	-0.182469	-0.015543	99.179094	4.094828	0.535110	17.678610	9.861131	-25.289118	-42.421532	28.296679	6.543338	42.613503	29.064764	23.817704	3.982923	42.759277	28.026014	12.071150	-4.212369	51.101881	34.839041	-0.062542	-7.802527	60.084316	41.578454
-1.325000	-160.147433	-5.066637	-73.570646	0.082856	-0.182464	-0.015546	99.184723	4.096982	0.537607	17.669954	9.910887	-25.290545	-42.422184	28.286438	6.551982	42.624824	29.075245	23.810365	3.984519	42.767317	28.029931	12.072613	-4.212307	51.096575	34.842838	-0.060239	-7.815230	60.091994	41.592948
-1.315000	-160.147433	-5.066637	-73.570646	0.082854	-0.182462	-0.015549	99.175160	4.090723	0.541726	17.652407	9.976730	-25.294782	-42.416172	28.277961	6.560081	42.629360	29.083835	23.805897	3.987608	42.766471	28.029476	12.068013	-4.212332	51.096229	34.851736	-0.063810	-7.826475	60.099702	41.612541
-1.305000	-160.147433	-5.066637	-73.570646	0.082852	-0.182462	-0.015554	99.154894	4.078023	0.547320	17.623172	10.043515	-25.301089	-42.407527	28.271330	6.565385	42.631487	29.091887	23.803823	3.991660	42.759047	28.025407	12.057291	-4.212733	51.101848	34.864656	-0.071901	-7.835728	60.106499	41.634440
